Patient4_TMGait_0pt6_01_right_05_EMG.mot
version=1
nRows=16
nColumns=33
inDegrees=no
endheader
time	1LAddLong	2LGlutMax	3LGlutMed	4LIliopsoas	5LSemiMemb	6LBicFemLong	7LRecFem	8LVastMed	9LVastLat	10LGasMed	11LTibAnt	12lTibPost	13LPeroneusLong	14LSol	15LExtDigLong	16LFlexDigLong	17RAddLong	18RGlutMax	19RGlutMed	20RIliopsoas	21RSemiMemb	22RBicFemLong	23RRecFem	24RVastMed	25RVastLat	26RGasMed	27RTibAnt	28RTibPost	29RPeroneusLong	30RSol	31RExtDigLong	32RFlexDigLong
6.77	0.00412	-0.19333	0.059204	0.005341	0.019989	0.020294	-0.039978	0.02533	-0.013733	0.037689	0.2594	0.003357	-0.65018	-0.18524	0.11658	-0.007477	-0.040588	-0.035248	0.088959	0.026093	-0.076752	-0.046082	-0.014801	-0.039368	-0.006866	-0.032043	0.048218	-0.002899	0.39658	0.078125	0.000458	-0.005188
6.771	0.01358	-0.22064	0.035553	-0.010681	0.015106	0.038147	-0.011749	0.011749	0.1033	0.072327	0.22736	0.003967	-0.26398	-0.11627	0.13077	-0.020599	-0.0354	-0.045471	0.057983	-0.010834	0.21606	-0.15625	-0.032349	-0.06897	-0.0177	-0.035553	0.18295	-0.006561	0.41901	0.016632	0.000916	-0.005341
6.772	0.02121	-0.22034	0.041199	0.010223	0.021973	0.027924	0.007324	-0.010223	0.17777	0.075836	0.11765	0.009155	-0.37354	-0.055542	0.14358	-0.001526	-0.033722	-0.049438	0.12955	-0.033417	0.23407	-0.1976	-0.025177	-0.080109	-0.003662	-0.035553	0.33142	-0.009155	0.31021	-0.02655	-0.005035	0.001678
6.773	0.014191	-0.20752	-0.00412	0.02533	0.01358	0.034027	0.063782	-0.009003	0.078583	0.037537	0.003662	-0.00412	0.015869	-0.008087	0.13962	-0.000153	-0.022888	-0.06012	0.18555	-0.067596	0.077667	-0.20004	-0.064392	-0.048828	-0.010071	0	0.50903	-0.010529	-0.072327	-0.045471	0.003357	-0.003204
6.774	0.008392	-0.22324	-0.085907	0.006866	0.011902	0.02243	0.077972	-0.005188	0.02182	-0.005493	-0.081482	0.006409	0.89798	-0.044708	0.13382	0.017395	-0.023804	-0.061493	0.16464	-0.019684	0.016632	-0.20981	-0.024109	-0.088043	0	0.013123	0.44418	-0.015411	-0.68146	-0.030365	-0.001068	0.001526
6.775	0.004425	-0.20554	-0.069122	-0.003662	0.014801	-0.003052	0.037079	-0.000458	0.028687	0.016479	-0.035858	0.006714	-0.35233	0.00061	0.17899	-0.003967	-0.023193	-0.054779	-0.054779	-0.012207	-0.025482	-0.18631	-0.023346	-0.070343	-0.000458	0.019836	-0.088196	-0.011444	-0.64621	0.047913	-0.000305	0.008698
6.776	0.002899	-0.19302	-0.059052	0.007629	0.010071	-0.004578	0.022278	0.001831	0.056458	0.026703	-0.046539	-0.000763	-0.5011	0.067749	-0.21973	-0.008545	-0.018311	-0.07309	-0.16052	-0.069427	-0.052185	-0.1355	-0.029755	-0.050354	0.000305	0.015564	-0.27237	-0.000763	0.11978	-0.031128	-0.00061	0.004272
6.777	0.005646	-0.19577	0.17654	-0.020752	0.012665	0.006104	0.050354	-0.00473	0.06546	0.027924	-0.10605	-0.000458	-0.33417	-0.11643	-0.16602	-0.006866	-0.009613	-0.036774	0.006409	-0.092621	-0.02182	0.079346	-0.032501	-0.048065	-0.011749	0.006561	-0.33127	-0.00061	0.69244	-0.11292	0.006104	-0.000916
6.778	0.002899	-0.21469	0.020447	0.014496	0.014191	-0.01236	0.075378	-0.002899	0.044861	0.028076	-0.067596	-0.003967	-0.1503	-0.16968	-0.22842	-0.010223	-0.012665	-0.065765	-0.000458	-0.02182	-0.000153	0.18005	-0.053864	-0.046234	-0.005035	0.002136	-0.22492	-0.009918	0.46234	-0.14587	0.001678	-0.000305
6.779	0.002747	-0.22629	-0.04364	-0.006104	0.0177	-0.010834	0.10193	0.003967	0.019379	0.000458	-0.070496	0.00824	0.068817	-0.041809	0.010681	0.002289	-0.003052	-0.045471	-0.16861	0.024109	-0.024109	0.070343	-0.058746	-0.060883	0.00473	-0.002441	0.31586	0.004883	0.28229	-0.2005	0.000305	-0.00412
6.78	0.006104	-0.20004	-0.07782	0.03006	0.011597	0.003357	0.1149	-0.001984	0.036163	0.006104	-0.048065	-0.004578	-0.074158	0.075226	0.21469	0.009155	-0.02182	-0.067444	-0.26993	0.11398	0.044708	0.028687	-0.021667	-0.06073	0.005341	0.005798	0.62668	-0.00351	0.25391	-0.28	0.000458	-0.008392
6.781	0.003967	-0.20096	-0.027924	0.02243	0.015106	-0.019684	0.14343	-0.004272	0.041046	0.036163	0.058441	-0.008698	-0.11765	0.14481	0.40237	0.006561	-0.029907	-0.079803	-0.20447	0.10788	0.10422	-0.002441	-0.018616	-0.094757	0.010986	0.010529	0.78247	-0.006104	-0.005951	-0.3273	0.001068	0.001526
6.782	0.001221	-0.19653	0.081787	0.031433	0.019836	-0.025177	0.15442	-0.010986	0.052185	0.06012	0.047607	0.003357	0.037537	0.11475	0.46967	-0.011139	-0.013885	-0.063171	0.069733	0.088806	0.025024	-0.007782	-0.02655	-0.049896	0.010986	0.010376	0.54962	-0.005951	-0.12497	-0.19745	0.00061	0.010529
6.783	0.009613	-0.19058	0.054626	0.008545	0.020599	-0.000916	0.12817	-0.004883	-0.07019	0.052795	0.045319	-0.005341	0.020447	0.059509	0.38971	-0.005646	0.00061	-0.10056	0.60425	-0.013275	-0.012665	-0.017242	-0.033875	-0.059052	0.022736	0.007019	-0.20386	-0.001373	-0.040741	0.023193	-0.002136	0.006561
6.784	0.007477	-0.17441	0.051575	0.007172	0.011139	0.023193	0.12405	0.003052	-0.009613	0.10437	0.048218	0.003967	0.06424	0.001221	-0.19226	-0.002136	0.008087	-0.09201	0.65613	-0.06897	-0.050049	-0.00885	-0.030518	-0.065765	0.021667	-0.005646	-0.77652	0.000763	-0.24445	0.10452	-0.001678	0.007935
6.785	0.007477	-0.15656	0.035706	0.015869	0.016479	0.044556	0.13901	-0.003204	0.013123	0.1152	-0.029449	-0.004272	0.39749	-0.10056	-0.3447	0.008392	0.027466	-0.069427	0.45609	0.011139	-0.006714	-0.052643	-0.023804	-0.11978	0.006561	-0.020599	-0.61462	-0.007477	-0.24597	0.13825	0.000916	0.017242
